<?xml version="1.0"?>
<svg width="480" height="492" xmlns="http://www.w3.org/2000/svg" xmlns:svg="http://www.w3.org/2000/svg">
 <g class="layer">
  <title>Layer 1</title>
  <g id="SPLINE">
   <path d="m180.7,216.8l0,132.6c0,19.7 11.3,35.6 25.3,35.6l78.7,0c14,0 25.3,-16 25.3,-35.6l0,-132.6l-129.3,0z" fill="none" id="svg_1" stroke="#231F20" stroke-linecap="round" stroke-linejoin="round" stroke-miterlimit="10" stroke-width="0.9921"/>
  </g>
  <g id="HATCH">
   <path d="m180.7,216.8l0,132.6c0,19.7 11.3,35.6 25.3,35.6l78.7,0c14,0 25.3,-16 25.3,-35.6l0,-132.6l-129.3,0z" fill="#CB3E96" id="svg_2"/>
  </g>
  <g id="SPLINE_1_">
   <path d="m12.5,207.9c-0.1,1.5 -0.1,3 -0.1,4.5c0,75.7 102.6,137.1 229.2,137.1c126.6,0 229.2,-61.4 229.2,-137.1c0,-0.8 0,-1.7 -0.1,-2.5l-458.2,-2z" fill="none" id="svg_3" stroke="#231F20" stroke-linecap="round" stroke-linejoin="round" stroke-miterlimit="10" stroke-width="0.9921"/>
  </g>
  <g id="HATCH_1_">
   <path d="m10.2,207.9c-0.1,1.5 -0.1,3 -0.1,4.5c0,75.7 103.1,137.1 230.4,137.1c127.2,0 230.4,-61.4 230.4,-137.1c0,-0.8 0,-1.6 -0.1,-2.5l-460.6,-2z" fill="#DE549E" id="svg_4"/>
  </g>
  <g id="SPLINE_2_">
   <path fill="none" id="svg_5" stroke="#231F20" stroke-linecap="round" stroke-linejoin="round" stroke-miterlimit="10" stroke-width="0.9921"/>
  </g>
  <g id="POLYLINE" transform="translate(0 35) translate(-1 0) translate(-4 -36)">
   <line fill="#ff7f00" id="svg_6" stroke="#ff7f00" stroke-linecap="round" stroke-linejoin="round" stroke-miterlimit="10" stroke-width="5" x1="245.4" x2="340.4" y1="208.9" y2="7.9"/>
  </g>
  <g id="POLYLINE_1_" transform="translate(0 35) translate(-1 0) translate(-4 -36)">
   <line fill="#ff7f00" id="svg_7" stroke="#ff7f00" stroke-linecap="round" stroke-linejoin="round" stroke-miterlimit="10" stroke-width="5" x1="263.2" x2="432.3" y1="208.9" y2="39.9"/>
  </g>
  <text fill="#bfbfbf" filter="url(#svg_10_blur)" font-family="Fantasy" font-size="35" font-weight="bold" id="svg_10" stroke="#000000" stroke-width="0" text-anchor="middle" transform="null" x="247.5" xml:space="preserve" y="453.5">Edesia - a food app</text>
 </g>
 <defs>
  <filter id="svg_10_blur">
   <feGaussianBlur in="SourceGraphic" stdDeviation="0.7"/>
  </filter>
 </defs>
</svg>